<svg width="313" height="151" viewBox="0 0 313 151" fill="none" xmlns="http://www.w3.org/2000/svg">
<path d="M3.108 141V111.18H13.944C17.192 111.18 19.908 111.852 22.092 113.196C24.276 114.512 25.914 116.304 27.006 118.572C28.098 120.812 28.644 123.304 28.644 126.048C28.644 129.072 28.042 131.704 26.838 133.944C25.634 136.184 23.926 137.92 21.714 139.152C19.53 140.384 16.94 141 13.944 141H3.108ZM22.806 126.048C22.806 124.116 22.456 122.422 21.756 120.966C21.056 119.482 20.048 118.334 18.732 117.522C17.416 116.682 15.82 116.262 13.944 116.262H8.904V135.918H13.944C15.848 135.918 17.458 135.498 18.774 134.658C20.09 133.79 21.084 132.614 21.756 131.13C22.456 129.618 22.806 127.924 22.806 126.048ZM42.7905 141.42C40.9985 141.42 39.3885 141.126 37.9605 140.538C36.5325 139.922 35.3145 139.082 34.3065 138.018C33.3265 136.954 32.5705 135.736 32.0385 134.364C31.5065 132.992 31.2405 131.55 31.2405 130.038C31.2405 128.498 31.5065 127.042 32.0385 125.67C32.5705 124.298 33.3265 123.08 34.3065 122.016C35.3145 120.952 36.5325 120.126 37.9605 119.538C39.3885 118.922 40.9985 118.614 42.7905 118.614C44.5825 118.614 46.1785 118.922 47.5785 119.538C49.0065 120.126 50.2245 120.952 51.2325 122.016C52.2405 123.08 52.9965 124.298 53.5005 125.67C54.0325 127.042 54.2985 128.498 54.2985 130.038C54.2985 131.55 54.0325 132.992 53.5005 134.364C52.9965 135.736 52.2405 136.954 51.2325 138.018C50.2525 139.082 49.0485 139.922 47.6205 140.538C46.1925 141.126 44.5825 141.42 42.7905 141.42ZM37.0365 130.038C37.0365 131.326 37.2885 132.474 37.7925 133.482C38.2965 134.462 38.9825 135.232 39.8505 135.792C40.7185 136.352 41.6985 136.632 42.7905 136.632C43.8545 136.632 44.8205 136.352 45.6885 135.792C46.5565 135.204 47.2425 134.42 47.7465 133.44C48.2785 132.432 48.5445 131.284 48.5445 129.996C48.5445 128.736 48.2785 127.602 47.7465 126.594C47.2425 125.586 46.5565 124.802 45.6885 124.242C44.8205 123.682 43.8545 123.402 42.7905 123.402C41.6985 123.402 40.7185 123.696 39.8505 124.284C38.9825 124.844 38.2965 125.628 37.7925 126.636C37.2885 127.616 37.0365 128.75 37.0365 130.038ZM63.2809 141L55.1749 118.992H61.0129L66.5569 135.876L72.1429 118.992H77.4769L69.4129 141H63.2809ZM89.9184 141.42C88.1544 141.42 86.5584 141.126 85.1304 140.538C83.7024 139.922 82.4844 139.096 81.4764 138.06C80.4684 136.996 79.6844 135.792 79.1244 134.448C78.5924 133.076 78.3264 131.634 78.3264 130.122C78.3264 128.022 78.7884 126.104 79.7124 124.368C80.6644 122.632 82.0084 121.246 83.7444 120.21C85.5084 119.146 87.5804 118.614 89.9604 118.614C92.3684 118.614 94.4264 119.146 96.1344 120.21C97.8424 121.246 99.1444 122.632 100.04 124.368C100.964 126.076 101.426 127.924 101.426 129.912C101.426 130.248 101.412 130.598 101.384 130.962C101.356 131.298 101.328 131.578 101.3 131.802H84.2904C84.4024 132.922 84.7244 133.902 85.2564 134.742C85.8164 135.582 86.5164 136.226 87.3564 136.674C88.2244 137.094 89.1484 137.304 90.1284 137.304C91.2484 137.304 92.2984 137.038 93.2784 136.506C94.2864 135.946 94.9724 135.218 95.3364 134.322L100.166 135.666C99.6344 136.786 98.8644 137.78 97.8564 138.648C96.8764 139.516 95.7144 140.202 94.3704 140.706C93.0264 141.182 91.5424 141.42 89.9184 141.42ZM84.1644 128.232H95.6724C95.5604 127.112 95.2384 126.146 94.7064 125.334C94.2024 124.494 93.5304 123.85 92.6904 123.402C91.8504 122.926 90.9124 122.688 89.8764 122.688C88.8684 122.688 87.9444 122.926 87.1044 123.402C86.2924 123.85 85.6204 124.494 85.0884 125.334C84.5844 126.146 84.2764 127.112 84.1644 128.232ZM115.491 141V111.18H121.287V141H115.491ZM147.416 141H141.788V128.652C141.788 126.888 141.48 125.6 140.864 124.788C140.248 123.976 139.394 123.57 138.302 123.57C137.546 123.57 136.776 123.766 135.992 124.158C135.236 124.55 134.55 125.096 133.934 125.796C133.318 126.468 132.87 127.252 132.59 128.148V141H126.962V118.992H132.044V123.066C132.604 122.114 133.318 121.316 134.186 120.672C135.054 120 136.048 119.496 137.168 119.16C138.316 118.796 139.52 118.614 140.78 118.614C142.152 118.614 143.272 118.866 144.14 119.37C145.036 119.846 145.708 120.504 146.156 121.344C146.632 122.156 146.954 123.08 147.122 124.116C147.318 125.152 147.416 126.202 147.416 127.266V141ZM150.966 129.996C150.966 127.868 151.386 125.95 152.226 124.242C153.066 122.506 154.228 121.134 155.712 120.126C157.196 119.118 158.89 118.614 160.794 118.614C162.418 118.614 163.874 119.02 165.162 119.832C166.478 120.616 167.5 121.624 168.228 122.856V110.34H173.856V134.7C173.856 135.288 173.954 135.708 174.15 135.96C174.346 136.212 174.682 136.366 175.158 136.422V141C174.178 141.196 173.38 141.294 172.764 141.294C171.756 141.294 170.916 141.042 170.244 140.538C169.6 140.034 169.236 139.376 169.152 138.564L169.068 137.178C168.256 138.55 167.15 139.6 165.75 140.328C164.378 141.056 162.936 141.42 161.424 141.42C159.912 141.42 158.512 141.126 157.224 140.538C155.964 139.95 154.858 139.138 153.906 138.102C152.982 137.066 152.254 135.862 151.722 134.49C151.218 133.09 150.966 131.592 150.966 129.996ZM168.228 132.936V127.686C167.948 126.874 167.5 126.146 166.884 125.502C166.268 124.858 165.582 124.354 164.826 123.99C164.07 123.598 163.314 123.402 162.558 123.402C161.69 123.402 160.906 123.584 160.206 123.948C159.506 124.312 158.89 124.802 158.358 125.418C157.854 126.034 157.462 126.748 157.182 127.56C156.93 128.372 156.804 129.226 156.804 130.122C156.804 131.018 156.944 131.872 157.224 132.684C157.532 133.468 157.966 134.154 158.526 134.742C159.086 135.33 159.73 135.792 160.458 136.128C161.214 136.464 162.026 136.632 162.894 136.632C163.426 136.632 163.958 136.548 164.49 136.38C165.05 136.184 165.568 135.932 166.044 135.624C166.548 135.288 166.982 134.896 167.346 134.448C167.738 133.972 168.032 133.468 168.228 132.936ZM179.17 132.768V118.992H184.798V131.55C184.798 133.23 185.106 134.504 185.722 135.372C186.338 136.212 187.248 136.632 188.452 136.632C189.18 136.632 189.894 136.492 190.594 136.212C191.322 135.904 191.98 135.456 192.568 134.868C193.184 134.28 193.702 133.538 194.122 132.642V118.992H199.75V134.7C199.75 135.288 199.848 135.708 200.044 135.96C200.268 136.212 200.618 136.366 201.094 136.422V141C200.534 141.084 200.058 141.14 199.666 141.168C199.302 141.224 198.966 141.252 198.658 141.252C197.65 141.252 196.824 141.028 196.18 140.58C195.564 140.104 195.2 139.46 195.088 138.648L194.962 136.884C193.982 138.368 192.722 139.502 191.182 140.286C189.642 141.042 187.948 141.42 186.1 141.42C183.832 141.42 182.11 140.692 180.934 139.236C179.758 137.752 179.17 135.596 179.17 132.768ZM213.449 141.42C211.573 141.42 209.781 141.112 208.073 140.496C206.365 139.88 204.895 138.97 203.663 137.766L205.679 134.112C206.995 135.176 208.283 135.96 209.543 136.464C210.831 136.968 212.063 137.22 213.239 137.22C214.331 137.22 215.199 137.024 215.843 136.632C216.515 136.24 216.851 135.652 216.851 134.868C216.851 134.336 216.669 133.93 216.305 133.65C215.941 133.342 215.409 133.076 214.709 132.852C214.037 132.628 213.211 132.376 212.231 132.096C210.607 131.564 209.249 131.046 208.157 130.542C207.065 130.038 206.239 129.408 205.679 128.652C205.147 127.868 204.881 126.874 204.881 125.67C204.881 124.214 205.245 122.968 205.973 121.932C206.729 120.868 207.765 120.042 209.081 119.454C210.425 118.866 211.993 118.572 213.785 118.572C215.353 118.572 216.837 118.824 218.237 119.328C219.637 119.804 220.911 120.588 222.059 121.68L219.791 125.25C218.671 124.382 217.607 123.752 216.599 123.36C215.591 122.94 214.569 122.73 213.533 122.73C212.945 122.73 212.385 122.8 211.853 122.94C211.349 123.08 210.929 123.318 210.593 123.654C210.285 123.962 210.131 124.41 210.131 124.998C210.131 125.53 210.271 125.95 210.551 126.258C210.859 126.538 211.307 126.79 211.895 127.014C212.511 127.238 213.253 127.49 214.121 127.77C215.885 128.274 217.369 128.792 218.573 129.324C219.805 129.856 220.729 130.514 221.345 131.298C221.961 132.054 222.269 133.104 222.269 134.448C222.269 136.632 221.471 138.34 219.875 139.572C218.279 140.804 216.137 141.42 213.449 141.42ZM239.162 139.866C238.686 140.062 238.112 140.286 237.44 140.538C236.768 140.79 236.04 140.986 235.256 141.126C234.5 141.294 233.73 141.378 232.946 141.378C231.91 141.378 230.958 141.196 230.09 140.832C229.222 140.468 228.522 139.894 227.99 139.11C227.486 138.298 227.234 137.248 227.234 135.96V123.318H224.336V118.992H227.234V111.852H232.862V118.992H237.482V123.318H232.862V134.07C232.89 134.826 233.1 135.372 233.492 135.708C233.884 136.044 234.374 136.212 234.962 136.212C235.55 136.212 236.124 136.114 236.684 135.918C237.244 135.722 237.692 135.554 238.028 135.414L239.162 139.866ZM255.197 123.864C253.489 123.864 251.963 124.2 250.619 124.872C249.275 125.516 248.309 126.454 247.721 127.686V141H242.093V118.992H247.259V123.696C248.043 122.184 249.037 120.994 250.241 120.126C251.445 119.258 252.719 118.782 254.063 118.698C254.371 118.698 254.609 118.698 254.777 118.698C254.945 118.698 255.085 118.712 255.197 118.74V123.864ZM258.335 141V118.992H263.963V141H258.335ZM258.335 115.926V110.34H263.963V115.926H258.335ZM279.247 141.42C277.483 141.42 275.887 141.126 274.459 140.538C273.031 139.922 271.813 139.096 270.805 138.06C269.797 136.996 269.013 135.792 268.453 134.448C267.921 133.076 267.655 131.634 267.655 130.122C267.655 128.022 268.117 126.104 269.041 124.368C269.993 122.632 271.337 121.246 273.073 120.21C274.837 119.146 276.909 118.614 279.289 118.614C281.697 118.614 283.755 119.146 285.463 120.21C287.171 121.246 288.473 122.632 289.369 124.368C290.293 126.076 290.755 127.924 290.755 129.912C290.755 130.248 290.741 130.598 290.713 130.962C290.685 131.298 290.657 131.578 290.629 131.802H273.619C273.731 132.922 274.053 133.902 274.585 134.742C275.145 135.582 275.845 136.226 276.685 136.674C277.553 137.094 278.477 137.304 279.457 137.304C280.577 137.304 281.627 137.038 282.607 136.506C283.615 135.946 284.301 135.218 284.665 134.322L289.495 135.666C288.963 136.786 288.193 137.78 287.185 138.648C286.205 139.516 285.043 140.202 283.699 140.706C282.355 141.182 280.871 141.42 279.247 141.42ZM273.493 128.232H285.001C284.889 127.112 284.567 126.146 284.035 125.334C283.531 124.494 282.859 123.85 282.019 123.402C281.179 122.926 280.241 122.688 279.205 122.688C278.197 122.688 277.273 122.926 276.433 123.402C275.621 123.85 274.949 124.494 274.417 125.334C273.913 126.146 273.605 127.112 273.493 128.232ZM302.289 141.42C300.413 141.42 298.621 141.112 296.913 140.496C295.205 139.88 293.735 138.97 292.503 137.766L294.519 134.112C295.835 135.176 297.123 135.96 298.383 136.464C299.671 136.968 300.903 137.22 302.079 137.22C303.171 137.22 304.039 137.024 304.683 136.632C305.355 136.24 305.691 135.652 305.691 134.868C305.691 134.336 305.509 133.93 305.145 133.65C304.781 133.342 304.249 133.076 303.549 132.852C302.877 132.628 302.051 132.376 301.071 132.096C299.447 131.564 298.089 131.046 296.997 130.542C295.905 130.038 295.079 129.408 294.519 128.652C293.987 127.868 293.721 126.874 293.721 125.67C293.721 124.214 294.085 122.968 294.813 121.932C295.569 120.868 296.605 120.042 297.921 119.454C299.265 118.866 300.833 118.572 302.625 118.572C304.193 118.572 305.677 118.824 307.077 119.328C308.477 119.804 309.751 120.588 310.899 121.68L308.631 125.25C307.511 124.382 306.447 123.752 305.439 123.36C304.431 122.94 303.409 122.73 302.373 122.73C301.785 122.73 301.225 122.8 300.693 122.94C300.189 123.08 299.769 123.318 299.433 123.654C299.125 123.962 298.971 124.41 298.971 124.998C298.971 125.53 299.111 125.95 299.391 126.258C299.699 126.538 300.147 126.79 300.735 127.014C301.351 127.238 302.093 127.49 302.961 127.77C304.725 128.274 306.209 128.792 307.413 129.324C308.645 129.856 309.569 130.514 310.185 131.298C310.801 132.054 311.109 133.104 311.109 134.448C311.109 136.632 310.311 138.34 308.715 139.572C307.119 140.804 304.977 141.42 302.289 141.42Z" fill="white"/>
<circle cx="157" cy="48" r="45" stroke="white" stroke-width="6"/>
<circle cx="157" cy="48" r="33.8372" stroke="white" stroke-width="6"/>
<circle cx="157" cy="48" r="22.6744" stroke="white" stroke-width="6"/>
<circle cx="157" cy="48" r="11.5116" fill="white" stroke="white" stroke-width="6"/>
</svg>
